[Header]
FileType HTR
DataType HTRS
FileVersion 1
NumSegments 64
NumFrames 4
DataFrameRate 30
EulerRotationOrder ZYX
CalibrationUnits mm
RotationUnits Degrees
GlobalAxisofGravity Y
BoneLengthAxis Y
ScaleFactor 1.0
[SegmentNames&Hierarchy]
Hips	GLOBAL
Spine	Hips
Spine1	Spine
Spine2	Spine1
Neck	Spine2
Head	Neck
LeftEye	Head
RightEye	Head
LeftShoulder	Spine2
LeftArm	LeftShoulder
LeftForeArm	LeftArm
LeftHand	LeftForeArm
LeftHandThumb1	LeftHand
LeftHandThumb2	LeftHandThumb1
LeftHandThumb3	LeftHandThumb2
LeftHandThumb4	LeftHandThumb3
LeftHandIndex1	LeftHand
LeftHandIndex2	LeftHandIndex1
LeftHandIndex3	LeftHandIndex2
LeftHandIndex4	LeftHandIndex3
LeftHandMiddle1	LeftHand
LeftHandMiddle2	LeftHandMiddle1
LeftHandMiddle3	LeftHandMiddle2
LeftHandMiddle4	LeftHandMiddle3
LeftHandRing1	LeftHand
LeftHandRing2	LeftHandRing1
LeftHandRing3	LeftHandRing2
LeftHandRing4	LeftHandRing3
LeftHandPinky1	LeftHand
LeftHandPinky2	LeftHandPinky1
LeftHandPinky3	LeftHandPinky2
LeftHandPinky4	LeftHandPinky3
RightShoulder	Spine2
RightArm	RightShoulder
RightForeArm	RightArm
RightHand	RightForeArm
RightHandPinky1	RightHand
RightHandPinky2	RightHandPinky1
RightHandPinky3	RightHandPinky2
RightHandPinky4	RightHandPinky3
RightHandRing1	RightHand
RightHandRing2	RightHandRing1
RightHandRing3	RightHandRing2
RightHandRing4	RightHandRing3
RightHandMiddle1	RightHand
RightHandMiddle2	RightHandMiddle1
RightHandMiddle3	RightHandMiddle2
RightHandMiddle4	RightHandMiddle3
RightHandIndex1	RightHand
RightHandIndex2	RightHandIndex1
RightHandIndex3	RightHandIndex2
RightHandIndex4	RightHandIndex3
RightHandThumb1	RightHand
RightHandThumb2	RightHandThumb1
RightHandThumb3	RightHandThumb2
RightHandThumb4	RightHandThumb3
LeftUpLeg	Hips
LeftLeg	LeftUpLeg
LeftFoot	LeftLeg
LeftToeBase	LeftFoot
RightUpLeg	Hips
RightLeg	RightUpLeg
RightFoot	RightLeg
RightToeBase	RightFoot
[BasePosition]
Hips	0	0	0	0	0	0	1
Spine	0	0	0	0	0	0	1
Spine1	0	0	0	0	0	0	1
Spine2	0	0	0	0	0	0	1
Neck	0	0	0	0	0	0	1
Head	0	0	0	0	0	0	1
LeftEye	0	0	0	0	0	0	1
RightEye	0	0	0	0	0	0	1
LeftShoulder	0	0	0	0	0	0	1
LeftArm	0	0	0	0	0	0	1
LeftForeArm	0	0	0	0	0	0	1
LeftHand	0	0	0	0	0	0	1
LeftHandThumb1	0	0	0	0	0	0	1
LeftHandThumb2	0	0	0	0	0	0	1
LeftHandThumb3	0	0	0	0	0	0	1
LeftHandThumb4	0	0	0	0	0	0	1
LeftHandIndex1	0	0	0	0	0	0	1
LeftHandIndex2	0	0	0	0	0	0	1
LeftHandIndex3	0	0	0	0	0	0	1
LeftHandIndex4	0	0	0	0	0	0	1
LeftHandMiddle1	0	0	0	0	0	0	1
LeftHandMiddle2	0	0	0	0	0	0	1
LeftHandMiddle3	0	0	0	0	0	0	1
LeftHandMiddle4	0	0	0	0	0	0	1
LeftHandRing1	0	0	0	0	0	0	1
LeftHandRing2	0	0	0	0	0	0	1
LeftHandRing3	0	0	0	0	0	0	1
LeftHandRing4	0	0	0	0	0	0	1
LeftHandPinky1	0	0	0	0	0	0	1
LeftHandPinky2	0	0	0	0	0	0	1
LeftHandPinky3	0	0	0	0	0	0	1
LeftHandPinky4	0	0	0	0	0	0	1
RightShoulder	0	0	0	0	0	0	1
RightArm	0	0	0	0	0	0	1
RightForeArm	0	0	0	0	0	0	1
RightHand	0	0	0	0	0	0	1
RightHandPinky1	0	0	0	0	0	0	1
RightHandPinky2	0	0	0	0	0	0	1
RightHandPinky3	0	0	0	0	0	0	1
RightHandPinky4	0	0	0	0	0	0	1
RightHandRing1	0	0	0	0	0	0	1
RightHandRing2	0	0	0	0	0	0	1
RightHandRing3	0	0	0	0	0	0	1
RightHandRing4	0	0	0	0	0	0	1
RightHandMiddle1	0	0	0	0	0	0	1
RightHandMiddle2	0	0	0	0	0	0	1
RightHandMiddle3	0	0	0	0	0	0	1
RightHandMiddle4	0	0	0	0	0	0	1
RightHandIndex1	0	0	0	0	0	0	1
RightHandIndex2	0	0	0	0	0	0	1
RightHandIndex3	0	0	0	0	0	0	1
RightHandIndex4	0	0	0	0	0	0	1
RightHandThumb1	0	0	0	0	0	0	1
RightHandThumb2	0	0	0	0	0	0	1
RightHandThumb3	0	0	0	0	0	0	1
RightHandThumb4	0	0	0	0	0	0	1
LeftUpLeg	0	0	0	0	0	0	1
LeftLeg	0	0	0	0	0	0	1
LeftFoot	0	0	0	0	0	0	1
LeftToeBase	0	0	0	0	0	0	1
RightUpLeg	0	0	0	0	0	0	1
RightLeg	0	0	0	0	0	0	1
RightFoot	0	0	0	0	0	0	1
RightToeBase	0	0	0	0	0	0	1
[Hips]
236	3.215868473	1034.103516	11.98758602	-3.746202469	-5.443246841	-3.279081583	1.0
237	3.257128	1034.094971	11.886096	-3.710701704	-5.426649094	-3.29330349	1.0
238	3.28309083	1034.079712	11.81289577	-3.672215223	-5.412232399	-3.3083179	1.0
239	3.291780949	1034.062012	11.77910423	-3.635894775	-5.397933483	-3.322958231	1.0
[Spine]
236	0	101.8159943	1.315000057	3.408204317	1.401679277	2.834878445	1.0
237	0	101.8159943	1.315000057	3.401560545	1.399142385	2.830636263	1.0
238	0	101.8159943	1.315000057	3.39564538	1.396833181	2.826808929	1.0
239	0	101.8159943	1.315000057	3.390455484	1.394719958	2.823413134	1.0
[Spine1]
236	0	100.8349991	-10.00800037	1.174278617	0.316686362	1.574995279	1.0
237	0	100.8349991	-10.00800037	1.172148347	0.3154929876	1.573082805	1.0
238	0	100.8349991	-10.00800037	1.170235157	0.3143962622	1.571276426	1.0
239	0	100.8349991	-10.00800037	1.168539524	0.3133983314	1.569586158	1.0
[Spine2]
236	0	91	-13.73399925	1.148998857	0.3395000696	1.578320146	1.0
237	0	91	-13.73399925	1.146872401	0.3382969201	1.576419353	1.0
238	0	91	-13.73399925	1.144960761	0.3371910155	1.574622869	1.0
239	0	91	-13.73399925	1.143267274	0.3361828029	1.572940469	1.0
[Neck]
236	0	166.7169952	-25.16200066	5.608810425	-0.1407797486	0.4733784199	1.0
237	0	166.7169952	-25.16200066	5.609735966	-0.1385915875	0.4701506197	1.0
238	0	166.7169952	-25.16200066	5.610843658	-0.1365307271	0.4670451581	1.0
239	0	166.7169952	-25.16200066	5.612103939	-0.134610191	0.4640851021	1.0
[Head]
236	0	96.17900085	16.84999847	-7.584107876	1.330231428	-0.2556447983	1.0
237	0	96.17900085	16.84999847	-7.577862263	1.333786607	-0.2569797337	1.0
238	0	96.17900085	16.84999847	-7.572745323	1.336983919	-0.2580868602	1.0
239	0	96.17900085	16.84999847	-7.568907261	1.339824438	-0.2589954436	1.0
[LeftEye]
236	30.6760006	64.09500122	92.83599854	0	0	0	1.0
237	30.6760006	64.09500122	92.83599854	0	0	0	1.0
238	30.6760006	64.09500122	92.83599854	0	0	0	1.0
239	30.6760006	64.09500122	92.83599854	0	0	0	1.0
[RightEye]
236	-30.6760006	64.09500122	92.83499908	0	0	0	1.0
237	-30.6760006	64.09500122	92.83499908	0	0	0	1.0
238	-30.6760006	64.09500122	92.83499908	0	0	0	1.0
239	-30.6760006	64.09500122	92.83499908	0	0	0	1.0
[LeftShoulder]
236	45.70400238	109.4599991	-26.28000069	4.881409645	-16.76338005	-13.09203243	1.0
237	45.70400238	109.4599991	-26.28000069	4.88350153	-16.76427078	-13.10329723	1.0
238	45.70400238	109.4599991	-26.28000069	4.885608673	-16.76562691	-13.11445236	1.0
239	45.70400238	109.4599991	-26.28000069	4.887704372	-16.76739883	-13.1253891	1.0
[LeftArm]
236	105.923996	-5.24600029	-22.32099915	20.11021233	-3.127845764	-71.16234589	1.0
237	105.923996	-5.24600029	-22.32099915	20.11172295	-3.122521639	-71.14559937	1.0
238	105.923996	-5.24600029	-22.32099915	20.11329269	-3.11758852	-71.12923431	1.0
239	105.923996	-5.24600029	-22.32099915	20.11488914	-3.113074541	-71.11336517	1.0
[LeftForeArm]
236	278.414978	-0.0009999999311	0	8.297108423e-08	-1.482265949	-0.0001900496864	1.0
237	278.414978	-0.0009999999311	0	-7.646289305e-06	-1.479653001	-0.0002034809731	1.0
238	278.414978	-0.0009999999311	0	-5.813582447e-06	-1.477160215	-0.0002083763393	1.0
239	278.414978	-0.0009999999311	0	-3.860594916e-06	-1.474783182	-0.0002137433767	1.0
[LeftHand]
236	283.2879944	0	0	-32.9251976	-4.550255775	-4.520212173	1.0
237	283.2879944	0	0	-32.92572021	-4.546082497	-4.51464653	1.0
238	283.2879944	0	0	-32.92686462	-4.542322159	-4.508503914	1.0
239	283.2879944	0	0	-32.92857742	-4.538986206	-4.501889706	1.0
[LeftHandThumb1]
236	24.6609993	-15.75	26.8239994	-0.4889889657	2.201390743	4.818541527	1.0
237	24.6609993	-15.75	26.8239994	-0.4889889657	2.201390743	4.818541527	1.0
238	24.6609993	-15.75	26.8239994	-0.4889889657	2.201390743	4.818541527	1.0
239	24.6609993	-15.75	26.8239994	-0.4889889657	2.201390743	4.818541527	1.0
[LeftHandThumb2]
236	32.29800034	-18.64699936	18.64699936	19.88581276	19.96446037	23.26738167	1.0
237	32.29800034	-18.64699936	18.64699936	19.88581276	19.96446037	23.26738167	1.0
238	32.29800034	-18.64699936	18.64699936	19.88581276	19.96446037	23.26738167	1.0
239	32.29800034	-18.64699936	18.64699936	19.88581276	19.96446037	23.26738167	1.0
[LeftHandThumb3]
236	26.52600098	-15.31499958	15.31499958	-13.14535904	5.551738262	7.967928886	1.0
237	26.52600098	-15.31499958	15.31499958	-13.14535904	5.551738262	7.967928886	1.0
238	26.52600098	-15.31499958	15.31499958	-13.14535904	5.551738262	7.967928886	1.0
239	26.52600098	-15.31499958	15.31499958	-13.14535904	5.551738262	7.967928886	1.0
[LeftHandThumb4]
236	19.54599953	-11.28499985	11.28499985	0	0	0	1.0
237	19.54599953	-11.28499985	11.28499985	0	0	0	1.0
238	19.54599953	-11.28499985	11.28499985	0	0	0	1.0
239	19.54599953	-11.28499985	11.28499985	0	0	0	1.0
[LeftHandIndex1]
236	91.09299469	-5.170999527	22.60099792	0.1480516791	-0.9618676901	-7.594518185	1.0
237	91.09299469	-5.170999527	22.60099792	0.1480516791	-0.9618676901	-7.594518185	1.0
238	91.09299469	-5.170999527	22.60099792	0.1480516791	-0.9618676901	-7.594518185	1.0
239	91.09299469	-5.170999527	22.60099792	0.1480516791	-0.9618676901	-7.594518185	1.0
[LeftHandIndex2]
236	36.76399994	0	0	-0.2667043209	1.745171905	-17.37646866	1.0
237	36.76399994	0	0	-0.2667043209	1.745171905	-17.37646866	1.0
238	36.76399994	0	0	-0.2667043209	1.745171905	-17.37646866	1.0
239	36.76399994	0	0	-0.2667043209	1.745171905	-17.37646866	1.0
[LeftHandIndex3]
236	28.83100128	0	0	-0.05742863193	0.817338407	-8.038370132	1.0
237	28.83100128	0	0	-0.05742863193	0.817338407	-8.038370132	1.0
238	28.83100128	0	0	-0.05742863193	0.817338407	-8.038370132	1.0
239	28.83100128	0	0	-0.05742863193	0.817338407	-8.038370132	1.0
[LeftHandIndex4]
236	23.92700005	0	0	0	0	0	1.0
237	23.92700005	0	0	0	0	0	1.0
238	23.92700005	0	0	0	0	0	1.0
239	23.92700005	0	0	0	0	0	1.0
[LeftHandMiddle1]
236	95.33399963	0	0	-0.7942916155	2.538622379	-15.71737862	1.0
237	95.33399963	0	0	-0.7942916155	2.538622379	-15.71737862	1.0
238	95.33399963	0	0	-0.7942916155	2.538622379	-15.71737862	1.0
239	95.33399963	0	0	-0.7942916155	2.538622379	-15.71737862	1.0
[LeftHandMiddle2]
236	36.98199844	0	0	-0.267610997	1.748071074	-17.40625954	1.0
237	36.98199844	0	0	-0.267610997	1.748071074	-17.40625954	1.0
238	36.98199844	0	0	-0.267610997	1.748071074	-17.40625954	1.0
239	36.98199844	0	0	-0.267610997	1.748071074	-17.40625954	1.0
[LeftHandMiddle3]
236	29.50900078	0	0	-0.2992140949	1.84580946	-18.41413307	1.0
237	29.50900078	0	0	-0.2992140949	1.84580946	-18.41413307	1.0
238	29.50900078	0	0	-0.2992140949	1.84580946	-18.41413307	1.0
239	29.50900078	0	0	-0.2992140949	1.84580946	-18.41413307	1.0
[LeftHandMiddle4]
236	28.3390007	0	0	0	0	0	1.0
237	28.3390007	0	0	0	0	0	1.0
238	28.3390007	0	0	0	0	0	1.0
239	28.3390007	0	0	0	0	0	1.0
[LeftHandRing1]
236	91.04499817	-0.4390000105	-18.65100098	-1.184956431	3.436642885	-21.16632462	1.0
237	91.04499817	-0.4390000105	-18.65100098	-1.184956431	3.436642885	-21.16632462	1.0
238	91.04499817	-0.4390000105	-18.65100098	-1.184956431	3.436642885	-21.16632462	1.0
239	91.04499817	-0.4390000105	-18.65100098	-1.184956431	3.436642885	-21.16632462	1.0
[LeftHandRing2]
236	31.54000092	0	0	-0.3849357069	2.085560799	-20.91281319	1.0
237	31.54000092	0	0	-0.3849357069	2.085560799	-20.91281319	1.0
238	31.54000092	0	0	-0.3849357069	2.085560799	-20.91281319	1.0
239	31.54000092	0	0	-0.3849357069	2.085560799	-20.91281319	1.0
[LeftHandRing3]
236	29.37700081	0	0	-0.2818065584	1.792707562	-17.86576271	1.0
237	29.37700081	0	0	-0.2818065584	1.792707562	-17.86576271	1.0
238	29.37700081	0	0	-0.2818065584	1.792707562	-17.86576271	1.0
239	29.37700081	0	0	-0.2818065584	1.792707562	-17.86576271	1.0
[LeftHandRing4]
236	26.47500038	0	0	0	0	0	1.0
237	26.47500038	0	0	0	0	0	1.0
238	26.47500038	0	0	0	0	0	1.0
239	26.47500038	0	0	0	0	0	1.0
[LeftHandPinky1]
236	80.77799988	-4.887000084	-38.06099701	-1.708467126	5.355370045	-27.1653862	1.0
237	80.77799988	-4.887000084	-38.06099701	-1.708467126	5.355370045	-27.1653862	1.0
238	80.77799988	-4.887000084	-38.06099701	-1.708467126	5.355370045	-27.1653862	1.0
239	80.77799988	-4.887000084	-38.06099701	-1.708467126	5.355370045	-27.1653862	1.0
[LeftHandPinky2]
236	36	0	0	-0.2676221728	1.748113751	-17.40663528	1.0
237	36	0	0	-0.2676221728	1.748113751	-17.40663528	1.0
238	36	0	0	-0.2676221728	1.748113751	-17.40663528	1.0
239	36	0	0	-0.2676221728	1.748113751	-17.40663528	1.0
[LeftHandPinky3]
236	21.14200211	0	0	-0.2408525199	1.660349369	-16.50663185	1.0
237	21.14200211	0	0	-0.2408525199	1.660349369	-16.50663185	1.0
238	21.14200211	0	0	-0.2408525199	1.660349369	-16.50663185	1.0
239	21.14200211	0	0	-0.2408525199	1.660349369	-16.50663185	1.0
[LeftHandPinky4]
236	19.75699997	0	0	0	0	0	1.0
237	19.75699997	0	0	0	0	0	1.0
238	19.75699997	0	0	0	0	0	1.0
239	19.75699997	0	0	0	0	0	1.0
[RightShoulder]
236	-45.70000076	109.4620056	-26.28000069	5.180643082	14.57448387	15.47787285	1.0
237	-45.70000076	109.4620056	-26.28000069	5.180635929	14.56563663	15.48227119	1.0
238	-45.70000076	109.4620056	-26.28000069	5.180709839	14.55748844	15.48679543	1.0
239	-45.70000076	109.4620056	-26.28000069	5.180860043	14.55006981	15.49139309	1.0
[RightArm]
236	-105.9280014	-5.248000145	-22.32099915	30.2654171	2.298377752	62.64554214	1.0
237	-105.9280014	-5.248000145	-22.32099915	30.26442146	2.291712761	62.64345169	1.0
238	-105.9280014	-5.248000145	-22.32099915	30.26297951	2.284843445	62.64133835	1.0
239	-105.9280014	-5.248000145	-22.32099915	30.26118469	2.277855635	62.63929367	1.0
[RightForeArm]
236	-278.414978	0	0	-1.357670385e-06	6.652187824	1.478973354e-05	1.0
237	-278.414978	0	0	3.452343435e-06	6.656544685	-1.174384761e-05	1.0
238	-278.414978	0	0	-3.106331405e-06	6.660811424	-5.074158253e-06	1.0
239	-278.414978	0	0	-5.92007882e-06	6.664937973	1.085847089e-05	1.0
[RightHand]
236	-283.2879944	0	0.0009999999311	-20.06987572	1.767261267	6.380702972	1.0
237	-283.2879944	0	0.0009999999311	-20.07016373	1.776324868	6.399482727	1.0
238	-283.2879944	0	0.0009999999311	-20.07055473	1.785239816	6.417476177	1.0
239	-283.2879944	0	0.0009999999311	-20.07102966	1.793942571	6.434587955	1.0
[RightHandPinky1]
236	-80.76699829	-4.885000229	-38.06000137	-1.507175922	-4.696118355	26.50587463	1.0
237	-80.76699829	-4.885000229	-38.06000137	-1.507175922	-4.696118355	26.50587463	1.0
238	-80.76699829	-4.885000229	-38.06000137	-1.507175922	-4.696118355	26.50587463	1.0
239	-80.76699829	-4.885000229	-38.06000137	-1.507175922	-4.696118355	26.50587463	1.0
[RightHandPinky2]
236	-36	0	0.0009999999311	-0.2127676606	-1.388874292	17.43785858	1.0
237	-36	0	0.0009999999311	-0.2127676606	-1.388874292	17.43785858	1.0
238	-36	0	0.0009999999311	-0.2127676606	-1.388874292	17.43785858	1.0
239	-36	0	0.0009999999311	-0.2127676606	-1.388874292	17.43785858	1.0
[RightHandPinky3]
236	-21.14200211	0	0	-0.1919144988	-1.32059598	16.53641129	1.0
237	-21.14200211	0	0	-0.1919144988	-1.32059598	16.53641129	1.0
238	-21.14200211	0	0	-0.1919144988	-1.32059598	16.53641129	1.0
239	-21.14200211	0	0	-0.1919144988	-1.32059598	16.53641129	1.0
[RightHandPinky4]
236	-19.75699997	0	0	0	0	0	1.0
237	-19.75699997	0	0	0	0	0	1.0
238	-19.75699997	0	0	0	0	0	1.0
239	-19.75699997	0	0	0	0	0	1.0
[RightHandRing1]
236	-91.03599548	-0.4390000105	-18.65100098	-1.045235753	-2.883111477	20.47788429	1.0
237	-91.03599548	-0.4390000105	-18.65100098	-1.045235753	-2.883111477	20.47788429	1.0
238	-91.03599548	-0.4390000105	-18.65100098	-1.045235753	-2.883111477	20.47788429	1.0
239	-91.03599548	-0.4390000105	-18.65100098	-1.045235753	-2.883111477	20.47788429	1.0
[RightHandRing2]
236	-31.54000092	0	0	-0.3066971898	-1.658752441	20.94926834	1.0
237	-31.54000092	0	0	-0.3066971898	-1.658752441	20.94926834	1.0
238	-31.54000092	0	0	-0.3066971898	-1.658752441	20.94926834	1.0
239	-31.54000092	0	0	-0.3066971898	-1.658752441	20.94926834	1.0
[RightHandRing3]
236	-29.37700081	0	0	-0.2245407403	-1.425854325	17.89771652	1.0
237	-29.37700081	0	0	-0.2245407403	-1.425854325	17.89771652	1.0
238	-29.37700081	0	0	-0.2245407403	-1.425854325	17.89771652	1.0
239	-29.37700081	0	0	-0.2245407403	-1.425854325	17.89771652	1.0
[RightHandRing4]
236	-26.47500038	0	0	0	0	0	1.0
237	-26.47500038	0	0	0	0	0	1.0
238	-26.47500038	0	0	0	0	0	1.0
239	-26.47500038	0	0	0	0	0	1.0
[RightHandMiddle1]
236	-95.32500458	0	0	-0.7017197609	-2.087752104	15.0152874	1.0
237	-95.32500458	0	0	-0.7017197609	-2.087752104	15.0152874	1.0
238	-95.32500458	0	0	-0.7017197609	-2.087752104	15.0152874	1.0
239	-95.32500458	0	0	-0.7017197609	-2.087752104	15.0152874	1.0
[RightHandMiddle2]
236	-36.98199844	0	0	-0.213228479	-1.390354872	17.43750381	1.0
237	-36.98199844	0	0	-0.213228479	-1.390354872	17.43750381	1.0
238	-36.98199844	0	0	-0.213228479	-1.390354872	17.43750381	1.0
239	-36.98199844	0	0	-0.213228479	-1.390354872	17.43750381	1.0
[RightHandMiddle3]
236	-29.50900078	0	0	-0.2384106964	-1.470119596	18.44692802	1.0
237	-29.50900078	0	0	-0.2384106964	-1.470119596	18.44692802	1.0
238	-29.50900078	0	0	-0.2384106964	-1.470119596	18.44692802	1.0
239	-29.50900078	0	0	-0.2384106964	-1.470119596	18.44692802	1.0
[RightHandMiddle4]
236	-28.3390007	0	0.0009999999311	0	0	0	1.0
237	-28.3390007	0	0.0009999999311	0	0	0	1.0
238	-28.3390007	0	0.0009999999311	0	0	0	1.0
239	-28.3390007	0	0.0009999999311	0	0	0	1.0
[RightHandIndex1]
236	-91.08300018	-5.167999744	22.60099792	0.1884763837	1.25192976	6.825599194	1.0
237	-91.08300018	-5.167999744	22.60099792	0.1884763837	1.25192976	6.825599194	1.0
238	-91.08300018	-5.167999744	22.60099792	0.1884763837	1.25192976	6.825599194	1.0
239	-91.08300018	-5.167999744	22.60099792	0.1884763837	1.25192976	6.825599194	1.0
[RightHandIndex2]
236	-36.76399994	0	0	-0.2125098109	-1.388050556	17.40767097	1.0
237	-36.76399994	0	0	-0.2125098109	-1.388050556	17.40767097	1.0
238	-36.76399994	0	0	-0.2125098109	-1.388050556	17.40767097	1.0
239	-36.76399994	0	0	-0.2125098109	-1.388050556	17.40767097	1.0
[RightHandIndex3]
236	-28.83100128	0	0	-0.04576345533	-0.650116384	8.053516388	1.0
237	-28.83100128	0	0	-0.04576345533	-0.650116384	8.053516388	1.0
238	-28.83100128	0	0	-0.04576345533	-0.650116384	8.053516388	1.0
239	-28.83100128	0	0	-0.04576345533	-0.650116384	8.053516388	1.0
[RightHandIndex4]
236	-23.92700005	0	0	0	0	0	1.0
237	-23.92700005	0	0	0	0	0	1.0
238	-23.92700005	0	0	0	0	0	1.0
239	-23.92700005	0	0	0	0	0	1.0
[RightHandThumb1]
236	-24.64799881	-15.72700024	26.82600021	-1.658462524	-0.2891407609	-4.221328735	1.0
237	-24.64799881	-15.72700024	26.82600021	-1.658462524	-0.2891407609	-4.221328735	1.0
238	-24.64799881	-15.72700024	26.82600021	-1.658462524	-0.2891407609	-4.221328735	1.0
239	-24.64799881	-15.72700024	26.82600021	-1.658462524	-0.2891407609	-4.221328735	1.0
[RightHandThumb2]
236	-32.29800034	-18.64699936	18.64699936	22.25259209	-23.88967514	-24.282444	1.0
237	-32.29800034	-18.64699936	18.64699936	22.25259209	-23.88967514	-24.282444	1.0
238	-32.29800034	-18.64699936	18.64699936	22.25259209	-23.88967514	-24.282444	1.0
239	-32.29800034	-18.64699936	18.64699936	22.25259209	-23.88967514	-24.282444	1.0
[RightHandThumb3]
236	-26.52600098	-15.31399918	15.31399918	-14.47830296	-6.743862152	-11.36570263	1.0
237	-26.52600098	-15.31399918	15.31399918	-14.47830296	-6.743862152	-11.36570263	1.0
238	-26.52600098	-15.31399918	15.31399918	-14.47830296	-6.743862152	-11.36570263	1.0
239	-26.52600098	-15.31399918	15.31399918	-14.47830296	-6.743862152	-11.36570263	1.0
[RightHandThumb4]
236	-19.54599953	-11.28499985	11.28499985	0	0	0	1.0
237	-19.54599953	-11.28499985	11.28499985	0	0	0	1.0
238	-19.54599953	-11.28499985	11.28499985	0	0	0	1.0
239	-19.54599953	-11.28499985	11.28499985	0	0	0	1.0
[LeftUpLeg]
236	82.07800293	-67.51699829	-15.99599934	-8.023604393	16.06591606	7.545587063	1.0
237	82.07800293	-67.51699829	-15.99599934	-8.075626373	16.06679535	7.547399521	1.0
238	82.07800293	-67.51699829	-15.99599934	-8.132638931	16.06485748	7.548173428	1.0
239	82.07800293	-67.51699829	-15.99599934	-8.186767578	16.06054688	7.54856348	1.0
[LeftLeg]
236	0	-443.7049866	2.845999956	12.04958057	1.268299818	4.535622597	1.0
237	0	-443.7049866	2.845999956	12.05676365	1.252957582	4.527975559	1.0
238	0	-443.7049866	2.845999956	12.07095718	1.248478651	4.526711464	1.0
239	0	-443.7049866	2.845999956	12.0883646	1.247354507	4.529530525	1.0
[LeftFoot]
236	0	-444.2789917	-29.8219986	1.376961946	0.6670280099	-7.016106129	1.0
237	0	-444.2789917	-29.8219986	1.379307032	0.6674216986	-7.020044804	1.0
238	0	-444.2789917	-29.8219986	1.377762198	0.6673734188	-7.022420883	1.0
239	0	-444.2789917	-29.8219986	1.372792959	0.6667883992	-7.021295547	1.0
[LeftToeBase]
236	0	-87.28699493	107.1060028	-4.932239532	4.961076684e-06	-2.745564188e-06	1.0
237	0	-87.28699493	107.1060028	-4.930330276	2.98695295e-06	-5.298636097e-06	1.0
238	0	-87.28699493	107.1060028	-4.927981853	4.66122799e-07	-3.293766326e-07	1.0
239	0	-87.28699493	107.1060028	-4.926228046	1.664148158e-06	2.784622097e-07	1.0
[RightUpLeg]
236	-82.07800293	-67.51699829	-15.99599934	0.05532377586	-10.52488899	3.154228687	1.0
237	-82.07800293	-67.51699829	-15.99599934	0.02066553384	-10.51063919	3.175028086	1.0
238	-82.07800293	-67.51699829	-15.99599934	-0.01741168275	-10.49826336	3.196697712	1.0
239	-82.07800293	-67.51699829	-15.99599934	-0.0518130362	-10.4894228	3.217161655	1.0
[RightLeg]
236	0	-443.7049866	2.861999989	8.256988525	-9.20612812	-4.597083092	1.0
237	0	-443.7049866	2.861999989	8.240030289	-9.212090492	-4.59061718	1.0
238	0	-443.7049866	2.861999989	8.227420807	-9.217788696	-4.583157539	1.0
239	0	-443.7049866	2.861999989	8.217480659	-9.223791122	-4.575045109	1.0
[RightFoot]
236	0	-444.2770081	-29.83799934	-3.71122241	-1.356529951	3.373966932	1.0
237	0	-444.2770081	-29.83799934	-3.695827484	-1.381452084	3.369302034	1.0
238	0	-444.2770081	-29.83799934	-3.684280157	-1.403985023	3.363766909	1.0
239	0	-444.2770081	-29.83799934	-3.676907539	-1.424666047	3.357987642	1.0
[RightToeBase]
236	0	-87.28699493	107.1060028	-7.14192009	7.703310075e-06	-1.895890136e-06	1.0
237	0	-87.28699493	107.1060028	-7.152201176	-2.083175241e-05	3.28495787e-07	1.0
238	0	-87.28699493	107.1060028	-7.167931557	-9.037822565e-06	5.663511047e-07	1.0
239	0	-87.28699493	107.1060028	-7.182921886	1.389439694e-05	-1.205747822e-06	1.0
[EndOfFile]
